<svg width="24" height="24" viewBox="0 0 24 24" fill="none" xmlns="http://www.w3.org/2000/svg">
<path d="M14.83 11.2902L10.59 7.05019C10.497 6.95646 10.3864 6.88207 10.2646 6.8313C10.1427 6.78053 10.012 6.75439 9.88 6.75439C9.74799 6.75439 9.61728 6.78053 9.49542 6.8313C9.37356 6.88207 9.26296 6.95646 9.17 7.05019C8.98375 7.23756 8.87921 7.49101 8.87921 7.75519C8.87921 8.01938 8.98375 8.27283 9.17 8.46019L12.71 12.0002L9.17 15.5402C8.98375 15.7276 8.87921 15.981 8.87921 16.2452C8.87921 16.5094 8.98375 16.7628 9.17 16.9502C9.26344 17.0429 9.37426 17.1162 9.49609 17.166C9.61793 17.2157 9.74839 17.241 9.88 17.2402C10.0116 17.241 10.1421 17.2157 10.2639 17.166C10.3857 17.1162 10.4966 17.0429 10.59 16.9502L14.83 12.7102C14.9237 12.6172 14.9981 12.5066 15.0489 12.3848C15.0997 12.2629 15.1258 12.1322 15.1258 12.0002C15.1258 11.8682 15.0997 11.7375 15.0489 11.6156C14.9981 11.4938 14.9237 11.3832 14.83 11.2902Z" fill="#55565A"/>
</svg>
