<svg width="24" height="24" viewBox="0 0 24 24" fill="none" xmlns="http://www.w3.org/2000/svg">
<path d="M13.4098 11.9991L17.7062 7.71268C17.8944 7.52453 18.0001 7.26935 18.0001 7.00326C18.0001 6.73718 17.8944 6.482 17.7062 6.29385C17.5181 6.1057 17.2629 6 16.9968 6C16.7307 6 16.4755 6.1057 16.2874 6.29385L12.0009 10.5903L7.71445 6.29385C7.5263 6.1057 7.27111 6 7.00503 6C6.73895 6 6.48376 6.1057 6.29562 6.29385C6.10747 6.482 6.00177 6.73718 6.00177 7.00326C6.00177 7.26935 6.10747 7.52453 6.29562 7.71268L10.5921 11.9991L6.29562 16.2856C6.20196 16.3785 6.12763 16.489 6.0769 16.6108C6.02618 16.7325 6.00006 16.8631 6.00006 16.995C6.00006 17.1269 6.02618 17.2575 6.0769 17.3793C6.12763 17.501 6.20196 17.6116 6.29562 17.7044C6.3885 17.7981 6.49901 17.8724 6.62077 17.9232C6.74253 17.9739 6.87313 18 7.00503 18C7.13693 18 7.26753 17.9739 7.38929 17.9232C7.51105 17.8724 7.62156 17.7981 7.71445 17.7044L12.0009 13.408L16.2874 17.7044C16.3803 17.7981 16.4908 17.8724 16.6125 17.9232C16.7343 17.9739 16.8649 18 16.9968 18C17.1287 18 17.2593 17.9739 17.3811 17.9232C17.5028 17.8724 17.6133 17.7981 17.7062 17.7044C17.7999 17.6116 17.8742 17.501 17.9249 17.3793C17.9756 17.2575 18.0018 17.1269 18.0018 16.995C18.0018 16.8631 17.9756 16.7325 17.9249 16.6108C17.8742 16.489 17.7999 16.3785 17.7062 16.2856L13.4098 11.9991Z" fill="#EA5A0C"/>
</svg>
